# xmcd CD database file
#
# Track frame offsets:
#	150
#	15307
#	35677
#	53162
#	78045
#	93607
#	110027
#	110327
#	110627
#	110927
#	111227
#	111527
#	111827
#	112127
#	112427
#	112727
#	113027
#	113327
#	113627
#	113927
#	114227
#	114527
#	114827
#	115127
#	115427
#	115727
#	116027
#	116327
#	116627
#	116927
#	117227
#	117527
#	117827
#	118127
#	118427
#	118727
#	119027
#	119327
#	119627
#	119927
#	120227
#	120527
#	120827
#	121127
#	121427
#	121727
#	122027
#	122327
#	122627
#	122927
#	123227
#	123527
#	123827
#	124127
#	124427
#	124727
#	125027
#	125327
#	125627
#	125927
#	126227
#	126527
#	126827
#	127127
#	127427
#	127727
#	128027
#	128327
#	128627
#	128927
#
# Disc length: 1992 seconds
#
# Revision: 0
# Processed by: cddbd v1.5.1PL0 Copyright (c) Steve Scherf et al.
# Submitted via: CDex 1.50Beta7
#
DISCID=4a07c646
DTITLE=花田裕之 - Rent-A-Song
DYEAR=1995
DGENRE=Blues
TTITLE0=ひとつ
TTITLE1=ケンとメリー 〜愛と風のように〜
TTITLE2=落陽
TTITLE3=感謝知らずの女
TTITLE4=借家のブルース
TTITLE5=おさらば
TTITLE6=(Dummy Track)
TTITLE7=(Dummy Track)
TTITLE8=(Dummy Track)
TTITLE9=(Dummy Track)
TTITLE10=(Dummy Track)
TTITLE11=(Dummy Track)
TTITLE12=(Dummy Track)
TTITLE13=(Dummy Track)
TTITLE14=(Dummy Track)
TTITLE15=(Dummy Track)
TTITLE16=(Dummy Track)
TTITLE17=(Dummy Track)
TTITLE18=(Dummy Track)
TTITLE19=(Dummy Track)
TTITLE20=(Dummy Track)
TTITLE21=(Dummy Track)
TTITLE22=(Dummy Track)
TTITLE23=(Dummy Track)
TTITLE24=(Dummy Track)
TTITLE25=(Dummy Track)
TTITLE26=(Dummy Track)
TTITLE27=(Dummy Track)
TTITLE28=(Dummy Track)
TTITLE29=(Dummy Track)
TTITLE30=(Dummy Track)
TTITLE31=(Dummy Track)
TTITLE32=(Dummy Track)
TTITLE33=(Dummy Track)
TTITLE34=(Dummy Track)
TTITLE35=(Dummy Track)
TTITLE36=(Dummy Track)
TTITLE37=(Dummy Track)
TTITLE38=(Dummy Track)
TTITLE39=(Dummy Track)
TTITLE40=(Dummy Track)
TTITLE41=(Dummy Track)
TTITLE42=(Dummy Track)
TTITLE43=(Dummy Track)
TTITLE44=(Dummy Track)
TTITLE45=(Dummy Track)
TTITLE46=(Dummy Track)
TTITLE47=(Dummy Track)
TTITLE48=(Dummy Track)
TTITLE49=(Dummy Track)
TTITLE50=(Dummy Track)
TTITLE51=(Dummy Track)
TTITLE52=(Dummy Track)
TTITLE53=(Dummy Track)
TTITLE54=(Dummy Track)
TTITLE55=(Dummy Track)
TTITLE56=(Dummy Track)
TTITLE57=(Dummy Track)
TTITLE58=(Dummy Track)
TTITLE59=(Dummy Track)
TTITLE60=(Dummy Track)
TTITLE61=(Dummy Track)
TTITLE62=(Dummy Track)
TTITLE63=(Dummy Track)
TTITLE64=(Dummy Track)
TTITLE65=(Dummy Track)
TTITLE66=(Dummy Track)
TTITLE67=(Dummy Track)
TTITLE68=(Dummy Track)
TTITLE69=夢うつつ (Secret Track)
EXTD=YEAR: 1995
EXTT0=
EXTT1=
EXTT2=
EXTT3=
EXTT4=
EXTT5=
EXTT6=
EXTT7=
EXTT8=
EXTT9=
EXTT10=
EXTT11=
EXTT12=
EXTT13=
EXTT14=
EXTT15=
EXTT16=
EXTT17=
EXTT18=
EXTT19=
EXTT20=
EXTT21=
EXTT22=
EXTT23=
EXTT24=
EXTT25=
EXTT26=
EXTT27=
EXTT28=
EXTT29=
EXTT30=
EXTT31=
EXTT32=
EXTT33=
EXTT34=
EXTT35=
EXTT36=
EXTT37=
EXTT38=
EXTT39=
EXTT40=
EXTT41=
EXTT42=
EXTT43=
EXTT44=
EXTT45=
EXTT46=
EXTT47=
EXTT48=
EXTT49=
EXTT50=
EXTT51=
EXTT52=
EXTT53=
EXTT54=
EXTT55=
EXTT56=
EXTT57=
EXTT58=
EXTT59=
EXTT60=
EXTT61=
EXTT62=
EXTT63=
EXTT64=
EXTT65=
EXTT66=
EXTT67=
EXTT68=
EXTT69=
PLAYORDER=
